<?xml version="1.0" encoding="UTF-8" standalone="no"?>

<svg viewBox="0 0 11562.097 2657.696" xmlns:dc="http://purl.org/dc/elements/1.1/" xmlns:cc="http://creativecommons.org/ns#" xmlns:rdf="http://www.w3.org/1999/02/22-rdf-syntax-ns#" xmlns:svg="http://www.w3.org/2000/svg" xmlns="http://www.w3.org/2000/svg" xmlns:sodipodi="http://sodipodi.sourceforge.net/DTD/sodipodi-0.dtd" xmlns:inkscape="http://www.inkscape.org/namespaces/inkscape" xml:space="preserve" width="21.692413in" height="4.9868503in" version="1.1" style="clip-rule:evenodd;fill-rule:evenodd;image-rendering:optimizeQuality;shape-rendering:geometricPrecision;text-rendering:geometricPrecision" id="svg2" inkscape:version="0.91 r13725"><metadata id="metadata16"><rdf:rdf><cc:work rdf:about=""><dc:format>image/svg+xml</dc:format>
                <dc:type rdf:resource="http://purl.org/dc/dcmitype/StillImage"></dc:type>
                <dc:title></dc:title>
            </cc:work></rdf:rdf></metadata>
    <sodipodi:namedview pagecolor="#ffffff" bordercolor="#666666" borderopacity="1" objecttolerance="10" gridtolerance="10" guidetolerance="10" inkscape:pageopacity="0" inkscape:pageshadow="2" inkscape:window-width="1920" inkscape:window-height="1017" id="namedview14" showgrid="false" fit-margin-top="0" fit-margin-left="0" fit-margin-right="0" fit-margin-bottom="0" inkscape:zoom="0.2264896" inkscape:cx="1353.8374" inkscape:cy="427.976" inkscape:window-x="-8" inkscape:window-y="-8" inkscape:window-maximized="1" inkscape:current-layer="Layer_x0020_1"></sodipodi:namedview>
    <defs id="defs4"><style type="text/css" id="style6">
    .fil1 {fill:#373435}
    .fil0 {fill:#2AA0FA}
   </style></defs>
    <g id="Layer_x0020_1" transform="translate(-1021.3578,-113.07578)"><metadata id="CorelCorpID_0Corel-Layer"></metadata>
        <path class="fil1" d="m 5639.8416,984.20996 0,334.67834 464.19,0 0,282.1044 -464.19,0 0,615.5006 -287.2335,0 0,-1510.54088 774.5048,0 0,278.25754 -487.2713,0 z m 660.3809,-278.25754 278.2575,0 0,255.17626 -278.2575,0 0,-255.17626 z m 0,375.71178 278.2575,0 0,1134.8291 -278.2575,0 0,-1134.8291 z m 485.9889,-375.71178 279.5399,0 0,1510.54088 -279.5399,0 0,-1510.54088 z m 737.3183,1064.30288 c 16.6698,62.8324 52.5741,112.8418 106.4304,150.0283 57.7031,39.7512 121.8178,61.5501 191.0616,61.5501 93.6073,0 173.1096,-32.0574 239.7887,-98.7366 l 1.2823,-1.2823 306.468,0 -2.5645,6.4116 c -76.9376,188.497 -212.8607,306.4679 -410.3338,351.3482 -39.7511,8.9759 -80.7845,12.8228 -120.5355,12.8228 -166.698,0 -310.3149,-56.4208 -430.8504,-171.8271 -55.1385,-52.574 -100.0188,-114.1241 -132.076,-183.368 -30.7752,-62.8323 -55.1387,-137.2053 -50.0096,-209.0137 l 5.1293,-51.2916 c 6.4114,-89.7606 25.6458,-179.5211 65.3968,-261.5877 48.7272,-100.0189 119.2533,-182.0856 214.143,-241.0711 94.8896,-60.2678 198.7553,-87.1959 310.3148,-87.1959 155.1574,0 289.7982,53.8563 403.9222,159.0043 125.6647,116.6887 183.3679,264.1523 183.3679,434.6972 0,42.3157 -3.8469,83.349 -10.2583,125.6647 l 0,3.8468 -870.6769,0 z m 1920.873,-552.6681 c 39.7516,-56.4208 93.6082,-97.4543 156.4402,-126.947 65.3964,-29.4927 133.3581,-43.5979 205.1662,-43.5979 170.545,0 306.4689,64.1146 398.7939,209.0137 47.445,75.6553 66.679,160.2865 66.679,248.7648 l 0,711.6725 -283.3869,0 0,-662.9454 c 0,-83.349 -21.799,-164.1335 -96.172,-210.296 -30.7755,-17.9521 -65.3965,-25.6458 -101.3009,-25.6458 -69.2444,0 -124.3829,28.2104 -167.98,82.0667 -42.316,52.574 -60.2683,114.124 -60.2683,180.8032 l 0,636.0173 -280.8214,0 0,-653.9693 c 0,-89.7605 -29.4928,-166.6981 -111.5604,-212.8606 -33.3392,-19.2344 -70.5262,-28.2105 -108.9944,-28.2105 -83.3479,0 -141.0509,43.5979 -178.2379,116.6887 -23.0812,44.8802 -29.4924,96.1719 -29.4924,146.1813 l 0,632.1704 -279.5399,0 0,-1134.8291 255.1763,0 0,98.7365 c 35.9045,-60.2678 92.3249,-96.1719 160.2866,-116.6886 38.4689,-11.5406 78.219,-16.6698 119.2524,-16.6698 141.0516,0 259.0229,50.0094 335.9599,170.5449 z m 1927.2863,10.2584 0,-146.1814 253.893,0 0,1134.8291 -253.893,0 0,-144.8991 c -43.598,55.1386 -102.583,97.4543 -166.698,128.2292 -67.962,33.3397 -139.77,52.574 -216.707,52.574 -102.584,0 -200.038,-24.3635 -289.799,-78.2198 -87.196,-53.8563 -153.875,-129.5116 -200.038,-221.8367 -48.727,-98.7365 -70.525,-205.1669 -70.525,-315.4439 0,-115.4064 26.928,-224.4013 88.478,-323.1378 110.277,-175.6741 269.281,-262.87 475.73,-262.87 80.784,0 159.005,15.3875 232.095,50.0094 60.268,29.4927 111.56,70.5261 147.464,126.947 z m 446.238,-521.89318 278.257,0 0,255.17626 -278.257,0 0,-255.17626 z m 0,375.71178 278.257,0 0,1134.8291 -278.257,0 0,-1134.8291 z m 485.988,-375.71178 279.54,0 0,1510.54088 -279.54,0 0,-1510.54088 z m -4784.2321,819.38508 606.5245,0 c -12.823,-33.3397 -32.0573,-65.397 -55.1386,-93.6074 -64.1147,-78.2199 -148.746,-114.124 -250.0471,-114.124 -66.6793,0 -129.5115,17.952 -184.6502,57.7032 -53.8562,38.4687 -92.3251,88.4781 -116.6886,150.0282 z m 3523.7391,456.4962 c 91.043,0 166.698,-33.3396 229.53,-97.4543 62.833,-65.3968 89.76,-144.8991 89.76,-234.6596 0,-129.5115 -48.726,-229.5304 -165.415,-288.5158 -51.291,-25.6459 -105.147,-39.7511 -161.568,-39.7511 -123.101,0 -217.991,50.0095 -280.823,157.7221 -32.057,53.8562 -46.162,112.8417 -46.162,174.3917 0,133.3585 56.42,229.5304 175.673,289.7982 50.01,24.3636 102.584,38.4688 159.005,38.4688 z" id="path12" inkscape:connector-curvature="0" style="fill:#373435"></path>
        <g id="g4152" transform="translate(0,-92.447035)"><path sodipodi:nodetypes="ssccsscsscssccs" style="clip-rule:evenodd;fill:#1377C3;fill-rule:evenodd;image-rendering:optimizeQuality;shape-rendering:geometricPrecision;text-rendering:geometricPrecision" inkscape:connector-curvature="0" id="path10" d="m 1447.3578,205.37055 2837,0 c 117,0 224,48.00001 301,125.00003 l 0,0 c 76.9999,78.00002 125,184.00004 125,301.00006 l 0,1806.00036 c 0,117 -48.0001,223 -125,301 -77,77 -184,125.0001 -301,125.0001 l -2837,0 c -118,0 -224,-48.0001 -301,-125.0001 -77,-78 -125,-184 -125,-301 l 0,-1806.00036 c 0,-117.00002 48,-223.00004 125,-301.00006 l 0,0 c 77,-77.00002 183,-125.00003 301,-125.00003 z" class="fil0"></path>
            <path sodipodi:nodetypes="cccccssccscsccccccccsccccccscccccccsccccccsccccscccccccscccsccccccssccccsccccccccscccccc" style="clip-rule:evenodd;fill:#ffffff;fill-opacity:1;fill-rule:evenodd;image-rendering:optimizeQuality;shape-rendering:geometricPrecision;text-rendering:geometricPrecision" inkscape:connector-curvature="0" id="path10-3" d="m 1297.7597,2466.243 1480,-1481.00041 0,0 165,-164.00002 c 25,-26.00002 55,-45.00002 87,-59.00002 33,-13.00001 68,-20.00001 104,-20.00001 34,0 68,6 99,18.00001 31,12 59.9999,30 85,53.00002 l 0,0 8,8 c 25,24.99998 45,54.99999 57.9999,88.00003 14.0001,31.99996 21.0001,66.99999 21.0001,103 0,35.9999 -7,72 -21.0001,104 -12.9999,33 -32.9999,63 -57.9999,88 l 0,0 -783,783.0003 132,132 790,-790.0001 0,-1 c 41,-43.0001 73,-92.0002 94,-145.0001 20.9999,-54.0001 32,-111.0001 32,-171.0001 0,-61.00004 -12,-120.00003 -34,-175.00002 -23,-55.00003 -56.0001,-105.00004 -99,-148.00006 l 0,0 -8,-8 0,0 c -43,-39.99997 -92,-71.99998 -146,-92.99998 -53,-22 -111,-33 -170,-33 -59,0 -117,12 -171,33 -54,22 -104,54.00001 -146,94.99998 l -1,1 -711,710.00028 -12,13 -13,-13 -782,-782.00025 c -1,8 -2,16 -2,24 l 0,238.00001 652,652.00024 13,13 -13,12 -652,652.0002 -18,18 0,221 c 0,13 2,26 5,39 z m 3137,-1592.00044 18,-18.00001 0,-220 c 0,-14 -2,-27.00001 -5.0002,-39 l -14.9998,15 -1634,1634.00035 0,0 -11,11.0001 0,0 c -25,25 -55,45 -87,57.9999 -33,14 -68,21.0001 -104,21.0001 -36,0 -72,-7.0001 -104,-21.0001 -33,-12.9999 -63,-32.9999 -88,-57.9999 -25,-26 -45,-56 -58,-88.0001 -14,-33 -21,-68 -21,-104 0,-36 7,-71 21,-104 13,-32 33,-62 58,-87 l 0,0 782.9999,-784.0003 -131.9999,-132.00001 -783,784.00031 c -43,43 -76,93 -99,148 -23,55 -34,114 -34,175 0,61 11,121 34,176.0001 23,53.9999 56,105 99,148 l 0,0 c 43,43 93,76 148,99 55,22 115,34 176,34 59,0 116,-11 170,-32 53,-22 102,-53 145,-94 l 1,0 722.9999,-723.0002 11.9999,-12 13.0002,12 774,774.0002 16,16 c 0.9998,-7 2,-14 2,-21 l 0,-241 -18,-18 -642,-642.0002 -13.0001,-12 13.0001,-13 z" class="fil0"></path>
        </g>
    </g>
</svg>